<svg width="24" height="24" viewBox="0 0 24 24" fill="none" xmlns="http://www.w3.org/2000/svg">
<path d="M2 22H22" stroke="#FF7714" stroke-width="1.5" stroke-miterlimit="10" stroke-linecap="round" stroke-linejoin="round"/>
<path d="M2.95001 21.9999L3.00001 9.96995C3.00001 9.35995 3.29001 8.77995 3.77001 8.39995L10.77 2.94995C11.1221 2.67749 11.5548 2.52966 12 2.52966C12.4452 2.52966 12.8779 2.67749 13.23 2.94995L20.23 8.38995C20.72 8.76995 21 9.34995 21 9.96995V21.9999" stroke="#FF7714" stroke-width="1.5" stroke-miterlimit="10" stroke-linejoin="round"/>
<path d="M13 17H11C10.17 17 9.5 17.67 9.5 18.5V22H14.5V18.5C14.5 17.67 13.83 17 13 17ZM9.5 13.75H7.5C6.95 13.75 6.5 13.3 6.5 12.75V11.25C6.5 10.7 6.95 10.25 7.5 10.25H9.5C10.05 10.25 10.5 10.7 10.5 11.25V12.75C10.5 13.3 10.05 13.75 9.5 13.75ZM16.5 13.75H14.5C13.95 13.75 13.5 13.3 13.5 12.75V11.25C13.5 10.7 13.95 10.25 14.5 10.25H16.5C17.05 10.25 17.5 10.7 17.5 11.25V12.75C17.5 13.3 17.05 13.75 16.5 13.75Z" stroke="#FF7714" stroke-width="1.5" stroke-miterlimit="10" stroke-linejoin="round"/>
<path d="M19 7L18.97 4H14.57" stroke="#FF7714" stroke-width="1.5" stroke-miterlimit="10" stroke-linecap="round" stroke-linejoin="round"/>
</svg>
